<?xml version="1.0" encoding="utf-8"?>
<!DOCTYPE svg PUBLIC "-//W3C//DTD SVG 1.0//EN" "http://www.w3.org/TR/2001/REC-SVG-20010904/DTD/svg10.dtd">
<svg version="1.0" xmlns="http://www.w3.org/2000/svg" width="1200px" height="1200px" viewBox="0 0 1200 1200" preserveAspectRatio="xMidYMid meet">
 <g fill="#ffffff" fill-rule="evenodd">
  <path d="M395 1110.8 C393.3 1110.2 392 1109.3 392 1108.9 C392 1107.1 400.5 1100.7 407.4 1097.6 C417.7 1092.8 420.5 1090.6 423.9 1084.7 C427.8 1077.9 428.7 1070.7 426.5 1064.2 C422.9 1053.4 415.2 1048 390 1038.9 C364.7 1029.8 354 1022.9 348.8 1012.1 C345.4 1005 345 989.4 348 980.4 C352.2 967.6 366.9 955.1 391.7 943.3 C406.2 936.3 411.2 934.4 435.9 925.9 C477.7 911.6 497.5 898.6 513.6 874.5 C519.4 865.9 520.8 862.9 525.1 850 C529.2 837.9 530.9 828.6 529.2 827.6 C526.7 826.1 512.9 837.8 488.1 862.7 C471.1 879.7 466.6 883.2 453.5 889.8 C429.6 901.7 404.9 906.4 378.5 904 C355.3 901.9 339.2 898 297.9 884.4 C253.3 869.7 232.4 865.5 216.9 867.9 C207.9 869.3 204.2 870.9 199.1 875.4 C191.8 882 190 894.1 194 909.4 C196.6 919.2 198.5 923.9 209.8 947 C221.3 970.7 222.1 973.3 221.7 985.1 L221.5 994.4 215.3 986.9 C194.9 961.8 175.1 928.5 167.8 906.6 C160.5 884.9 164.2 864.4 177.9 850.9 C192.2 836.9 216.8 830.2 244.2 832.9 C258.5 834.3 277.4 837.7 298.5 842.5 C348.9 854.2 362.9 856.4 386 856.3 C401.4 856.2 404.6 855.9 413.2 853.6 C427.3 849.9 435.7 845.1 446.1 835 C455.4 825.7 467.2 809 466.7 805.6 C465.9 799.8 445.3 801.8 407 811.5 C369.6 820.8 346 822 317 815.8 C287.5 809.5 254.6 789.9 232 765.2 C207.9 738.9 194.8 710.2 179.4 650.2 C165.4 595.8 158.7 577.4 145.4 557.5 C134.6 541.2 125.3 534.5 110 531.9 C105.9 531.2 99.9 531.5 87 533 C77.3 534.1 67.8 535.1 65.7 535.4 C62.2 535.7 61.9 535.6 61.9 533.2 C61.9 529.4 69.3 522.8 76 520.6 C83.2 518.2 100.4 517.4 111.1 518.9 C129.8 521.6 145.8 529.1 158.7 541.3 C176.5 558.2 187.2 577.5 204.2 624 C215.1 653.7 221.3 668.8 228.4 683.5 C251.5 730.9 283.6 755.7 330.5 762.5 C339.6 763.8 346.8 764.1 365.7 763.7 C391.6 763.1 401.2 761.9 418.1 756.9 C429.2 753.6 450 744.3 450 742.6 C449.9 740.4 439.1 731.7 432.5 728.5 C424.6 724.7 419.1 723.4 404.4 722 C385.3 720.1 370.3 715.7 352.6 706.8 C333.3 697.2 317.1 685 299 666.9 C276.7 644.6 259.7 621.4 246.9 595.7 C238 577.6 234.4 566.4 230.7 545.6 C228.1 530.8 227.6 525.2 227.2 504.5 C226.7 478.7 227.3 470.2 231.6 447 C239.3 404.8 256.5 359.1 277.2 325.9 C295.4 296.6 332.3 253.5 370.8 216.5 C405.6 183.2 415.9 171.7 425.8 155.1 C431.5 145.7 436 132.7 436.1 125.6 C436.1 122.8 434.3 113 432 104 C429.8 94.9 428 86.7 428 85.7 C428 84.3 428.8 84 432.2 84 C444.4 84 453.8 95 455.3 110.7 C456.9 127.4 448.5 150 430.9 176.9 C422.5 189.8 402.5 216.6 375.4 251.5 C323.4 318.4 297.6 363.1 283 411.7 C275 438.3 272.5 457.3 273.2 486.3 C273.8 508 274.8 515.9 279.5 534.5 C290.8 580.1 319.7 618.8 360.5 643.5 C375 652.2 401.5 663.7 417.5 668.1 C429.2 671.3 446.6 671.2 456.6 667.7 C473.8 661.7 482.4 650.3 483.7 631.7 C485.2 610.2 476.9 587.4 451 542.5 C435.6 515.7 430 504.2 420.9 481.2 C405.8 442.8 398.8 419.6 394.4 393 C392.3 380.4 392 375.2 392 354.3 C391.9 328.4 392.6 323.8 398.5 304.9 C417.6 244.4 468.1 199.6 537.5 181.5 C564.9 174.3 584.7 172 615 172.4 C637.4 172.7 650 174.4 668.5 179.8 C705.3 190.5 736.7 209.2 761.6 235.3 C788.6 263.6 803.8 296.5 808 335.5 C809.9 353.3 806.9 390.5 801.4 417.7 C799.5 426.6 789.5 457.6 782.8 475.2 C767.5 515.3 747 558.4 729 588.2 C716.2 609.5 714.9 612.8 714.2 625.5 C712.5 658.1 732.9 674.3 770.4 670 C842.5 661.9 915.2 594.4 927.5 524.2 C928.5 518 928.9 508 928.9 487.6 C928.9 461.5 928.8 458.5 926.4 446.5 C919.5 411.3 913.8 394.8 899.3 367.5 C877.5 326.6 860.4 299.3 842.3 276.3 C837.4 270.1 826.2 256 817.4 244.8 C770.7 185.6 751.2 152.5 746.9 125.2 C745.7 117 747.1 106.9 751 96.6 C755 85.9 763 79.8 768.5 83.4 C771.9 85.6 771.7 88.9 767.3 107.7 C764.5 119.9 763.9 124.3 764.4 128.3 C766 140.1 774.6 155.9 788.4 172.5 C792.1 176.9 810.7 196.2 829.8 215.5 C874.3 260.4 880.8 267.4 898 289 C946 349.1 969.3 406.1 974 475.5 C978.2 537.6 959.7 600.1 923.7 645.8 C901.2 674.2 868.6 698.4 834.2 712 C810 721.7 777.6 728.9 759.1 728.9 C751.2 729 743 731 743 733 C743 734.4 756.8 743.4 765.9 748 C776.5 753.3 794.9 759.3 810.2 762.4 C853.5 771.2 894.2 762.5 925.5 737.9 C931.9 732.8 945.3 719.3 951.1 712 C968.5 690.1 984.5 658 997.9 618 C1003.8 600.3 1008.2 591.1 1021.2 569.2 C1035 546.1 1045.6 535.7 1064.3 526.9 C1078.5 520.3 1086.5 518.5 1102 518.5 C1113.1 518.5 1116.7 518.9 1122.7 520.7 C1130.3 523.1 1137 527.8 1137 530.9 C1137 532.5 1134.9 532.7 1112.7 533.2 C1079.3 534.1 1073.2 535.9 1060.4 548.5 C1044.8 563.8 1036.6 584.5 1019.1 653 C1012.8 677.3 1012.1 679.7 1007.8 692.9 C996.5 727.4 981.8 752.7 960.4 774.5 C933.6 801.6 903.4 815.5 863.8 819 C842.1 820.9 823.6 818.7 779 808.9 C750.5 802.7 737.8 801 735.4 803 C731.6 806.1 736.8 817.6 746.7 828.1 C751.9 833.6 769.3 844.5 780.9 849.6 C793.4 854.9 802.8 857 817.5 857.7 C838.8 858.6 853.3 856.3 897.1 845.5 C942.6 834.2 961.7 831.1 979.9 832.4 C1017 835 1035 851.2 1035 882 C1035 903.8 1020.9 938.6 999.2 970.5 C992.3 980.6 983 992 981.7 992 C981 992 980.9 988.5 981.2 982.2 C981.8 969.4 985 960 997.2 935.3 C1008.1 913.2 1010.5 905.4 1009.7 894.5 C1008.8 882.6 1004.2 876.3 993.9 872.3 C990.4 871 986.1 870.6 973.5 870.6 C950.6 870.6 936.6 873.4 897 885.5 C832.3 905.4 804.9 907.6 765.5 896.1 C736.8 887.8 721 876.8 700.9 851 C695.6 844.1 689.5 837.1 687.3 835.4 C682.2 831.3 677.1 828.7 675.4 829.3 C671.6 830.8 673.4 847.4 678.8 861.5 C687 882.4 703.2 898.3 729.7 911.2 C743.2 917.8 743.5 917.9 757.5 923.6 C762.4 925.5 768.4 928.2 770.9 929.4 C773.4 930.6 782.7 934 791.5 936.9 C800.3 939.9 810.5 943.5 814.2 945 C832.7 952.5 846.1 963.3 852 975.4 C855.3 982.2 855.4 982.8 855.4 994.4 C855.4 1006 855.3 1006.7 852.2 1012.6 C846.3 1024 838.2 1029.3 811.5 1039.1 C786.4 1048.3 778.8 1054.1 775.4 1066.4 C773.2 1074.7 773.9 1081.2 777.7 1085.8 C780.6 1089.4 781.9 1090.2 792 1095 C795.5 1096.7 799.8 1099.1 801.5 1100.4 C804.9 1103 808.8 1109.5 807.6 1110.7 C807.1 1111.1 802 1111.5 796.1 1111.5 C786.4 1111.5 784.9 1111.2 779.7 1108.6 C771.7 1104.7 762.8 1095.5 758.5 1086.6 C749.4 1068 753.4 1049.9 769.1 1038.9 C775.9 1034.2 778.2 1033.1 795.4 1027.2 C810.8 1021.9 815.5 1019.7 817 1016.8 C818.6 1013.9 817.6 1002.8 815.4 997.5 C811.1 986.9 801.6 976.3 793 972.2 C789.2 970.4 749.9 960.3 738 958 C718.6 954.3 683.8 941 670.8 932.4 C655.7 922.3 641.7 905.2 630.1 882.5 C627.3 877 620.8 863.7 615.6 853 C610.5 842.2 605.4 832 604.3 830.2 L602.3 827 597.5 830.4 C591 835 588.9 838.4 573.5 869 C566.1 883.6 557.3 899.8 553.9 905 C545.3 918.2 530.1 933 519.4 938.6 C507.4 945 470.2 957.1 451.9 960.8 C407 969.7 381 986 381 1005.2 C381 1015 386.6 1021 400.7 1026.3 C404.4 1027.7 411.5 1030.3 416.5 1032.2 C437.3 1039.9 447 1051.5 447 1068.8 C447 1083.7 434.9 1101.6 420.4 1108.4 C414 1111.4 400 1112.7 395 1110.8 M577.2 702.5 C555 698.2 536.9 688.1 517.3 669.2 C506.1 658.4 502.4 652.7 503.5 647.6 C504.9 641.3 530.7 618.5 547.9 608.5 C551.5 606.4 558.5 603.3 563.4 601.6 L572.5 598.5 595 598.5 C621.4 598.5 621.8 598.6 644.5 610.3 C669.2 623.1 685.6 635.4 690 644.6 C692.2 649.2 692.2 649.3 690.4 652.7 C684.4 663.9 643 694 626.5 699.2 C611.1 704 591.9 705.3 577.2 702.5 M586 695.5 C563.9 690.2 550.2 668.6 553 643.5 C555.5 621.1 573 606.9 598.5 606.7 C611 606.6 621.3 611.1 629.4 620.1 C637.8 629.5 641.9 640.1 641.9 652.6 C642 674.8 627.8 690.9 604.2 695.5 C595.2 697.3 593.4 697.3 586 695.5 M585.3 679.4 C571.7 673.8 563.9 659.9 566.7 646.3 C568.3 638.6 568.9 638.2 575 640.4 C580.8 642.5 583.6 642 587.3 638.3 C590.3 635.3 590.8 630.1 588.5 626 C587.7 624.6 587 623.1 587 622.6 C587 622.1 591.1 621.9 596.2 622.2 C612.5 622.9 622.5 629.7 625 641.6 C628.1 656.7 621.5 671.9 608.9 678.4 C604.9 680.5 602.6 681 596.5 681 C592.1 681 587.4 680.3 585.3 679.4 "/>
  <path d="M594.1 1102.2 C588.9 1093.6 557.3 1043.1 519.7 983.4 C512.7 972.4 506.8 962.7 506.6 961.9 C506 960.1 523.9 948 527.1 948 C531.9 948 539.5 958.7 565.5 1002 C574.2 1016.5 584.1 1032.7 587.5 1038 C593.2 1046.8 600.2 1054.4 601.9 1053.8 C602.3 1053.6 610.7 1041.5 620.5 1027 C660.1 967.9 671.3 951.4 672.2 950.2 C672.9 949.3 676.4 950.7 686.1 955.5 C693.2 959.1 698.9 962.4 698.8 962.8 C698.6 963.2 690.1 976.3 680 991.8 C669.8 1007.3 657.6 1025.9 652.9 1033.2 C625.2 1075.7 601.8 1111 601 1111.5 C600.4 1111.7 597.3 1107.6 594.1 1102.2 "/>
  <path d="M731.6 900.6 C725 897.8 715 890.8 715 888.9 C715 887.6 719 887.1 722.5 888.1 C725.8 889 738 899.2 738 901.1 C738 902.4 735.4 902.2 731.6 900.6 "/>
  <path d="M774.7 834.2 C771 832.3 759 820.7 759 819 C759 817.4 761.5 817.8 773 821.3 L783.5 824.6 783.8 828.2 C784 830.8 783.5 832.4 782 833.9 C779.5 836.4 778.8 836.4 774.7 834.2 "/>
  <path d="M419.9 829.8 C418.7 827.6 418.2 825.4 418.6 825 C420.1 823.7 442 816.8 443.2 817.2 C443.8 817.4 440.7 821.3 436.2 825.8 C429.5 832.4 427.4 834 425 834 C422.4 834 421.6 833.3 419.9 829.8 "/>
  <path d="M372.6 753.4 C371.2 753.1 369.5 752.1 368.7 751.1 C365.5 747.6 357 729.8 357 726.8 L357 723.7 363.2 724.4 C370.6 725.2 382.6 729 388.3 732.4 C395.1 736.4 403.4 744.3 402.7 746.2 C401.4 749.7 379.3 755 372.6 753.4 "/>
  <path d="M815.2 749.9 C803.3 747.6 801.7 746.5 803 741.8 C804.8 735.6 807.2 734.3 830.4 727.5 C844.7 723.2 850 722.2 850 723.5 C850 724.9 838.2 744.5 835.2 748 C831.3 752.7 830.3 752.8 815.2 749.9 "/>
  <path d="M983.5 493.8 C982.7 479.4 982.9 467 984 460 C985.3 451.7 990.9 441.2 1006.1 418 C1039.2 367.5 1045 358.7 1050.2 349.8 C1057.7 337.2 1062.2 327.6 1061.8 324.8 C1061.3 321.7 1057.1 319 1052.5 318.9 C1050.3 318.8 1023.3 319.3 992.5 319.8 L936.5 320.9 934.6 318.7 C932.7 316.4 921 293.6 920.9 292.2 C920.9 291.8 965.9 291.6 1020.9 291.7 C1075.9 291.9 1121 292.2 1121 292.4 C1121 292.7 1111.2 307.9 1099.3 326.2 C1087.4 344.5 1076.2 361.7 1074.4 364.5 C1016.7 453.6 988.5 496.9 985.5 501 C984.1 502.8 983.9 502.2 983.5 493.8 "/>
  <path d="M208.1 494.2 C204.9 488.8 179.1 446.5 164.4 422.5 C145.4 391.2 90.3 301 86.8 295.2 L84.8 292 183.4 292 C266.4 292 282 292.2 282 293.3 C282 294.7 270.6 317.5 268.7 319.7 C267.9 320.7 253.6 321 205.6 321.2 L143.5 321.5 143.5 325.6 C143.7 333.3 153 350.5 172.5 379.5 C178.1 387.7 187.9 402.2 194.3 411.7 C212.6 438.9 217 450 217.2 469.5 C217.3 478.5 214.1 495.8 212 498 C211.3 498.6 210 497.4 208.1 494.2 "/>
  <path d="M356.5 321.4 L341.1 320.9 344 313.7 C348 304 352.2 297.7 356.8 294.6 C360.4 292.1 361.2 292 373.3 292 L386 292 386 296.9 C386 302.3 384.6 309.7 382.4 317.2 L381 322 376.5 322 C374 322 365 321.7 356.5 321.4 "/>
  <path d="M819.4 318.2 C819 316.7 818.6 314.8 818.3 314 C817.7 312 814 294 814 292.8 C814 292.4 818.6 292 824.3 292 C834.5 292 834.9 292 839.7 295.2 C848.3 301.1 855.2 310.2 857.4 318.7 L858 321 839 321 L820 321 819.4 318.2 "/>
 </g>
</svg>