<?xml version="1.0" encoding="UTF-8"?>
<svg id="Layer_1" xmlns="http://www.w3.org/2000/svg" version="1.1" viewBox="0 0 1626.35 169.29">
  <!-- Generator: Adobe Illustrator 29.1.0, SVG Export Plug-In . SVG Version: 2.1.0 Build 142)  -->
  <g id="Long">
    <g id="Outline">
      <g id="Text">
        <g>
          <g>
            <path d="M639.85,25.58h14.02v77.8h-14.02V25.58Z"/>
            <path d="M662.62,80.71l12.2-2.4c.38,9.22,2.59,15.18,8.84,15.18,4.51,0,6.44-3.07,6.44-7.3,0-6.72-3.46-10.47-8.55-14.89l-9.8-8.55c-5.57-4.8-9.03-10.18-9.03-18.83,0-12.29,7.68-19.21,20.08-19.21,14.6,0,18.73,9.8,19.5,21.13l-12.2,2.11c-.29-7.3-1.34-12.77-7.59-12.77-4.23,0-6.53,3.17-6.53,7.3,0,5.28,2.21,8.16,6.34,11.72l9.7,8.55c6.34,5.48,11.62,12.29,11.62,22.57,0,11.24-7.88,19.12-19.5,19.12-14.22,0-20.94-8.26-21.52-23.73Z"/>
            <path d="M708.72,80.71l12.2-2.4c.38,9.22,2.59,15.18,8.84,15.18,4.51,0,6.44-3.07,6.44-7.3,0-6.72-3.46-10.47-8.55-14.89l-9.8-8.55c-5.57-4.8-9.03-10.18-9.03-18.83,0-12.29,7.68-19.21,20.08-19.21,14.6,0,18.73,9.8,19.5,21.13l-12.2,2.11c-.29-7.3-1.34-12.77-7.59-12.77-4.23,0-6.53,3.17-6.53,7.3,0,5.28,2.21,8.16,6.34,11.72l9.7,8.55c6.34,5.48,11.62,12.29,11.62,22.57,0,11.24-7.88,19.12-19.5,19.12-14.22,0-20.94-8.26-21.52-23.73Z"/>
            <path d="M775,25.58h9.89l18.92,44.38V25.58h11.72v77.8h-9.41l-19.02-46.49v46.49h-12.1V25.58Z"/>
            <path d="M835.71,25.58h15.18l15.56,77.8h-13.16l-3.07-17.96h-13.54l-3.17,17.96h-13.35l15.56-77.8ZM848.68,76.39l-5.28-32.66-5.28,32.66h10.57Z"/>
            <path d="M876.82,36.05h-12.39v-10.47h38.71v10.47h-12.1v67.33h-14.22V36.05Z"/>
            <path d="M909.29,25.58h14.02v77.8h-14.02V25.58Z"/>
            <path d="M930.9,78.98v-29.2c0-15.75,5.76-25.07,22.48-25.07s22.38,9.32,22.38,25.07v29.2c0,15.66-5.76,25.46-22.38,25.46s-22.48-9.7-22.48-25.46ZM961.35,82.35v-35.83c0-6.53-1.06-11.43-7.97-11.43s-8.07,4.9-8.07,11.43v35.83c0,6.44,1.06,11.62,8.07,11.62s7.97-5.19,7.97-11.62Z"/>
            <path d="M982.97,25.58h9.89l18.92,44.38V25.58h11.72v77.8h-9.41l-19.02-46.49v46.49h-12.1V25.58Z"/>
            <path d="M1043.77,25.58h15.18l15.56,77.8h-13.16l-3.07-17.96h-13.54l-3.17,17.96h-13.35l15.56-77.8ZM1056.74,76.39l-5.28-32.66-5.28,32.66h10.57Z"/>
            <path d="M1078.93,25.58h14.12v68.1h18.92v9.7h-33.04V25.58Z"/>
            <path d="M1138.2,25.58h14.12v68.1h18.92v9.7h-33.04V25.58Z"/>
            <path d="M1188.92,25.58h15.18l15.56,77.8h-13.16l-3.07-17.96h-13.54l-3.17,17.96h-13.35l15.56-77.8ZM1201.88,76.39l-5.28-32.66-5.28,32.66h10.57Z"/>
            <path d="M1224.27,25.58h19.21c13.64,0,22.76,4.61,22.76,19.98,0,9.51-3.94,14.79-11.24,15.95,9.12,1.73,13.45,8.26,13.45,19.21,0,14.89-7.3,22.67-21.71,22.67h-22.48V25.58ZM1243.28,57.37c8.45,0,10.66-3.75,10.66-11.62s-4.03-10.28-12.68-10.28h-2.88v21.9h4.9ZM1243.86,93.39c8.65,0,11.05-4.03,11.05-12.77,0-9.22-3.07-13.45-11.53-13.45h-4.99v26.22h5.47Z"/>
            <path d="M1273.35,78.98v-29.2c0-15.75,5.76-25.07,22.48-25.07s22.38,9.32,22.38,25.07v29.2c0,15.66-5.76,25.46-22.38,25.46s-22.48-9.7-22.48-25.46ZM1303.8,82.35v-35.83c0-6.53-1.06-11.43-7.97-11.43s-8.07,4.9-8.07,11.43v35.83c0,6.44,1.06,11.62,8.07,11.62s7.97-5.19,7.97-11.62Z"/>
            <path d="M1325.41,25.58h18.73c15.56,0,24.4,4.99,24.4,20.65,0,9.32-2.3,15.85-9.61,18.83l10.85,38.33h-14.22l-9.32-35.64h-6.72v35.64h-14.12V25.58ZM1344.05,58.91c8.16,0,11.14-3.55,11.14-11.91,0-7.88-2.21-11.72-10.37-11.72h-5.28v23.63h4.51Z"/>
            <path d="M1389.58,25.58h15.18l15.56,77.8h-13.16l-3.07-17.96h-13.54l-3.17,17.96h-13.35l15.56-77.8ZM1402.55,76.39l-5.28-32.66-5.28,32.66h10.57Z"/>
            <path d="M1430.79,36.05h-12.39v-10.47h38.71v10.47h-12.1v67.33h-14.22V36.05Z"/>
            <path d="M1461.72,78.98v-29.2c0-15.75,5.76-25.07,22.48-25.07s22.38,9.32,22.38,25.07v29.2c0,15.66-5.76,25.46-22.38,25.46s-22.48-9.7-22.48-25.46ZM1492.17,82.35v-35.83c0-6.53-1.06-11.43-7.97-11.43s-8.07,4.9-8.07,11.43v35.83c0,6.44,1.06,11.62,8.07,11.62s7.97-5.19,7.97-11.62Z"/>
            <path d="M1513.78,25.58h18.73c15.56,0,24.4,4.99,24.4,20.65,0,9.32-2.3,15.85-9.61,18.83l10.85,38.33h-14.22l-9.32-35.64h-6.72v35.64h-14.12V25.58ZM1532.42,58.91c8.16,0,11.14-3.55,11.14-11.91,0-7.88-2.21-11.72-10.37-11.72h-5.28v23.63h4.51Z"/>
            <path d="M1573.34,73.7l-15.75-48.12h13.25l9.61,30.83,9.03-30.83h12.97l-15.56,48.12v29.68h-13.54v-29.68Z"/>
          </g>
          <g>
            <path d="M651.08,125.21c-9.91,0-11.18,7.27-11.18,13.61v13.95c0,9.09,3.66,13.51,11.18,13.51,9.4,0,10.49-7.18,10.49-12.58v-3.32h-6.08v3.32c0,5.07-.43,7.46-4.36,7.46-3.19,0-4.81-1.16-4.81-7.51v-15.66c0-5.33.69-7.71,4.81-7.71s4.36,2.41,4.36,7.02v3.17h6.08v-3.51c0-8.02-3.33-11.76-10.49-11.76Z"/>
            <polygon points="672.27 147.41 680.34 147.41 680.34 142.73 672.27 142.73 672.27 130.43 682.23 130.43 682.23 125.56 665.9 125.56 665.9 165.85 682.32 165.85 682.32 161.12 672.27 161.12 672.27 147.41"/>
            <polygon points="701.01 150.31 690.26 125.56 685.8 125.56 685.8 165.85 691.34 165.85 691.34 140.39 702.13 165.61 702.23 165.85 706.44 165.85 706.44 125.56 701.01 125.56 701.01 150.31"/>
            <polygon points="709.33 130.43 716.11 130.43 716.11 165.85 722.49 165.85 722.49 130.43 729.07 130.43 729.07 125.56 709.33 125.56 709.33 130.43"/>
            <polygon points="738.28 147.41 746.35 147.41 746.35 142.73 738.28 142.73 738.28 130.43 748.24 130.43 748.24 125.56 731.91 125.56 731.91 165.85 748.34 165.85 748.34 161.12 738.28 161.12 738.28 147.41"/>
            <path d="M772.45,136.43c0-7.52-3.75-10.88-12.17-10.88h-8.46v40.29h6.38v-18.54h3.67l5.25,18.54h6.21l-5.74-19.95c3.23-1.24,4.87-4.42,4.87-9.46ZM758.19,130.29h2.09c4.6,0,6,1.44,6,6.15s-1.6,6.15-6.34,6.15h-1.74v-12.29Z"/>
            <polygon points="788.36 165.85 794.74 165.85 794.74 147.36 802.41 147.36 802.41 142.68 794.74 142.68 794.74 130.29 804.64 130.29 804.64 125.56 788.36 125.56 788.36 165.85"/>
            <path d="M818.12,125.21c-7.77,0-11.38,4.09-11.38,12.88v14.98c0,8.9,3.72,13.22,11.38,13.22s11.33-4.31,11.33-13.17v-15.02c0-8.67-3.71-12.88-11.33-12.88ZM818.12,161.17c-4.15,0-4.96-2.52-4.96-6.88v-17.32c0-4.33.79-6.68,4.96-6.68s4.91,2.35,4.91,6.68v17.32c0,4.36-.8,6.88-4.91,6.88Z"/>
            <path d="M854.56,136.43c0-7.52-3.75-10.88-12.17-10.88h-8.46v40.29h6.38v-18.54h3.67l5.25,18.54h6.21l-5.74-19.95c3.23-1.24,4.87-4.42,4.87-9.46ZM840.29,130.29h2.09c4.6,0,6,1.44,6,6.15s-1.6,6.15-6.34,6.15h-1.74v-12.29Z"/>
            <polygon points="868.09 130.43 874.87 130.43 874.87 165.85 881.25 165.85 881.25 130.43 887.83 130.43 887.83 125.56 868.09 125.56 868.09 130.43"/>
            <polygon points="906.56 142.63 897.04 142.63 897.04 125.56 890.67 125.56 890.67 165.85 897.04 165.85 897.04 147.36 906.56 147.36 906.56 165.85 912.94 165.85 912.94 125.56 906.56 125.56 906.56 142.63"/>
            <polygon points="924.58 147.41 932.65 147.41 932.65 142.73 924.58 142.73 924.58 130.43 934.53 130.43 934.53 125.56 918.2 125.56 918.2 165.85 934.63 165.85 934.63 161.12 924.58 161.12 924.58 147.41"/>
            <path d="M955.61,125.56l-8.68,40.29h6.05l1.93-9.95h7.52l1.83,9.95h6.11l-8.74-40.29h-6.03ZM961.55,151.17h-5.74l2.85-15.3,2.89,15.3Z"/>
            <path d="M982.42,125.56h-9.1v40.29h9.55c8.18,0,11.83-4.11,11.83-13.32v-14.54c0-8.72-3.67-12.44-12.27-12.44ZM979.69,130.43h2.63c5.43,0,5.95,2.26,5.95,8.24v12.83c0,6.66-.23,9.61-5.8,9.61h-2.78v-30.68Z"/>
            <polygon points="1014.89 125.56 1009.15 153.19 1003.14 125.56 997.09 125.56 1006.16 165.55 1006.23 165.85 1011.75 165.85 1020.79 125.56 1014.89 125.56"/>
            <path d="M1027.37,125.56l-8.68,40.29h6.05l1.93-9.95h7.52l1.83,9.95h6.11l-8.74-40.29h-6.03ZM1033.3,151.17h-5.74l2.85-15.3,2.89,15.3Z"/>
            <polygon points="1060.27 150.31 1049.53 125.56 1045.07 125.56 1045.07 165.85 1050.61 165.85 1050.61 140.39 1061.49 165.85 1065.71 165.85 1065.71 125.56 1060.27 125.56 1060.27 150.31"/>
            <path d="M1081.41,125.21c-9.91,0-11.18,7.27-11.18,13.61v13.95c0,9.09,3.66,13.51,11.18,13.51,9.4,0,10.49-7.18,10.49-12.58v-3.32h-6.08v3.32c0,5.07-.43,7.46-4.36,7.46-3.19,0-4.81-1.16-4.81-7.51v-15.66c0-5.33.7-7.71,4.81-7.71s4.36,2.41,4.36,7.02v3.17h6.08v-3.51c0-8.02-3.33-11.76-10.49-11.76Z"/>
            <polygon points="1102.6 147.41 1110.67 147.41 1110.67 142.73 1102.6 142.73 1102.6 130.43 1112.56 130.43 1112.56 125.56 1096.23 125.56 1096.23 165.85 1112.65 165.85 1112.65 161.12 1102.6 161.12 1102.6 147.41"/>
            <polygon points="1136.56 125.56 1129.75 156.19 1122.98 125.56 1116.78 125.56 1116.03 165.85 1121.36 165.85 1121.77 139.94 1127.85 165.85 1131.64 165.85 1137.77 139.91 1138.17 165.85 1143.46 165.85 1142.7 125.56 1136.56 125.56"/>
            <polygon points="1154.95 147.41 1163.02 147.41 1163.02 142.73 1154.95 142.73 1154.95 130.43 1164.9 130.43 1164.9 125.56 1148.57 125.56 1148.57 165.85 1165 165.85 1165 161.12 1154.95 161.12 1154.95 147.41"/>
            <polygon points="1183.68 150.31 1172.93 125.56 1168.48 125.56 1168.48 165.85 1174.01 165.85 1174.01 140.39 1184.9 165.85 1189.11 165.85 1189.11 125.56 1183.68 125.56 1183.68 150.31"/>
            <polygon points="1192 130.43 1198.78 130.43 1198.78 165.85 1205.16 165.85 1205.16 130.43 1211.74 130.43 1211.74 125.56 1192 125.56 1192 130.43"/>
            <path d="M1236.31,125.21c-7.77,0-11.38,4.09-11.38,12.88v14.98c0,8.9,3.72,13.22,11.38,13.22s11.33-4.31,11.33-13.17v-15.02c0-8.67-3.71-12.88-11.33-12.88ZM1236.31,161.17c-4.15,0-4.96-2.52-4.96-6.88v-17.32c0-4.33.79-6.68,4.96-6.68s4.91,2.35,4.91,6.68v17.32c0,4.36-.8,6.88-4.91,6.88Z"/>
            <polygon points="1252.12 165.85 1258.49 165.85 1258.49 147.36 1266.17 147.36 1266.17 142.68 1258.49 142.68 1258.49 130.29 1268.39 130.29 1268.39 125.56 1252.12 125.56 1252.12 165.85"/>
            <path d="M1296.29,145.12l-6.78-5.86c-1.86-1.59-2.49-2.87-2.49-5.07,0-2.58,1.39-3.95,4.02-3.95,3.68,0,4.65,2.74,4.96,6.86l.04.47,5.53-1.47-.03-.33c-.67-7.2-4-10.55-10.49-10.55-6.13,0-9.8,3.56-9.8,9.51,0,3.98,1.16,6.59,4,9.03l6.73,5.86c2.47,2.15,4.22,3.93,4.22,7.31,0,2.82-1.35,4.24-4.02,4.24-3.23,0-4.92-2.58-5.3-8.12l-.03-.47-5.72,1.52.02.32c.45,7.66,4.36,11.88,11.04,11.88,5.98,0,10-3.94,10-9.8,0-4.2-1.92-7.92-5.88-11.37Z"/>
            <path d="M1315.94,125.21c-9.91,0-11.18,7.27-11.18,13.61v13.95c0,9.09,3.66,13.51,11.18,13.51,9.4,0,10.49-7.18,10.49-12.58v-3.32h-6.08v3.32c0,5.07-.43,7.46-4.36,7.46-3.19,0-4.81-1.16-4.81-7.51v-15.66c0-5.33.7-7.71,4.81-7.71s4.36,2.41,4.36,7.02v3.17h6.08v-3.51c0-8.02-3.33-11.76-10.49-11.76Z"/>
            <rect x="1331.05" y="125.56" width="6.28" height="40.29"/>
            <polygon points="1349.16 147.41 1357.23 147.41 1357.23 142.73 1349.16 142.73 1349.16 130.43 1359.11 130.43 1359.11 125.56 1342.79 125.56 1342.79 165.85 1359.21 165.85 1359.21 161.12 1349.16 161.12 1349.16 147.41"/>
            <polygon points="1377.89 150.31 1367.15 125.56 1362.69 125.56 1362.69 165.85 1368.23 165.85 1368.23 140.39 1379.12 165.85 1383.33 165.85 1383.33 125.56 1377.89 125.56 1377.89 150.31"/>
            <path d="M1399.03,125.21c-9.91,0-11.18,7.27-11.18,13.61v13.95c0,9.09,3.66,13.51,11.18,13.51,9.4,0,10.49-7.18,10.49-12.58v-3.32h-6.08v3.32c0,5.07-.43,7.46-4.36,7.46-3.19,0-4.81-1.16-4.81-7.51v-15.66c0-5.33.7-7.71,4.81-7.71s4.36,2.41,4.36,7.02v3.17h6.08v-3.51c0-8.02-3.33-11.76-10.49-11.76Z"/>
            <polygon points="1420.22 147.41 1428.29 147.41 1428.29 142.73 1420.22 142.73 1420.22 130.43 1430.18 130.43 1430.18 125.56 1413.85 125.56 1413.85 165.85 1430.27 165.85 1430.27 161.12 1420.22 161.12 1420.22 147.41"/>
            <rect x="1445.15" y="125.56" width="6.28" height="40.29"/>
            <polygon points="1472.08 150.31 1461.34 125.56 1456.88 125.56 1456.88 165.85 1462.41 165.85 1462.41 140.39 1473.3 165.85 1477.52 165.85 1477.52 125.56 1472.08 125.56 1472.08 150.31"/>
            <path d="M1507.84,145.12l-6.78-5.86c-1.86-1.59-2.49-2.87-2.49-5.07,0-2.58,1.39-3.95,4.02-3.95,3.68,0,4.65,2.74,4.96,6.86l.04.47,5.53-1.47-.03-.33c-.67-7.2-4-10.55-10.49-10.55-6.13,0-9.8,3.56-9.8,9.51,0,3.98,1.16,6.59,4,9.03l6.73,5.86c2.47,2.15,4.22,3.93,4.22,7.31,0,2.82-1.35,4.24-4.02,4.24-3.23,0-4.92-2.58-5.3-8.12l-.03-.47-5.72,1.52.02.32c.45,7.66,4.36,11.88,11.04,11.88,5.98,0,10-3.94,10-9.8,0-4.2-1.92-7.92-5.88-11.37Z"/>
            <path d="M1537.68,136.87c0-7.62-3.37-11.32-10.29-11.32h-10.34v40.29h6.38v-18.39h4.02c6.51,0,10.24-3.86,10.24-10.59ZM1523.42,130.29h2.23c5.4,0,5.95,1.26,5.95,6.64,0,4.56-1.29,5.8-6,5.8h-2.18v-12.44Z"/>
            <path d="M1543.02,125.56l-8.68,40.29h6.05l1.93-9.95h7.52l1.83,9.95h6.11l-8.74-40.29h-6.03ZM1548.96,151.17h-5.74l2.85-15.3,2.89,15.3Z"/>
            <path d="M1571.17,125.21c-9.91,0-11.18,7.27-11.18,13.61v13.95c0,9.09,3.66,13.51,11.18,13.51,9.4,0,10.49-7.18,10.49-12.58v-3.32h-6.08v3.32c0,5.07-.43,7.46-4.36,7.46-3.19,0-4.81-1.16-4.81-7.51v-15.66c0-5.33.7-7.71,4.81-7.71s4.36,2.41,4.36,7.02v3.17h6.08v-3.51c0-8.02-3.33-11.76-10.49-11.76Z"/>
            <polygon points="1592.36 161.12 1592.36 147.41 1600.43 147.41 1600.43 142.73 1592.36 142.73 1592.36 130.43 1602.31 130.43 1602.31 125.56 1585.98 125.56 1585.98 165.85 1602.41 165.85 1602.41 161.12 1592.36 161.12"/>
          </g>
          <path d="M1606.45,35.44c0-5.04,2.87-10.44,9.94-10.44s9.91,5.39,9.91,10.44-2.85,10.43-9.91,10.43-9.94-5.44-9.94-10.43ZM1624.78,35.44c0-4.59-2.57-9.09-8.41-9.09s-8.44,4.49-8.44,9.09,2.55,9.11,8.44,9.11,8.41-4.57,8.41-9.11ZM1612.17,29.04h4.14c2.87,0,4.57.8,4.57,3.44,0,1.57-.4,2.5-1.8,3.15l2.2,6.07h-3.44l-1.7-5.44h-.7v5.44h-3.27v-12.66ZM1615.99,34.64c1.42,0,1.82-.77,1.82-1.92,0-1.05-.42-1.75-1.55-1.75h-.82v3.67h.55Z"/>
          <path d="M1606.45,135.91c0-5.04,2.87-10.43,9.94-10.43s9.91,5.39,9.91,10.43-2.85,10.43-9.91,10.43-9.94-5.44-9.94-10.43ZM1624.78,135.91c0-4.59-2.57-9.09-8.41-9.09s-8.44,4.49-8.44,9.09,2.55,9.11,8.44,9.11,8.41-4.57,8.41-9.11ZM1612.17,129.52h4.14c2.87,0,4.57.8,4.57,3.45,0,1.57-.4,2.5-1.8,3.14l2.2,6.07h-3.44l-1.7-5.44h-.7v5.44h-3.27v-12.66ZM1615.99,135.11c1.42,0,1.82-.77,1.82-1.92,0-1.05-.42-1.75-1.55-1.75h-.82v3.67h.55Z"/>
        </g>
      </g>
      <g id="Icon">
        <path d="M362.75,139.66c-.58-1.18-1.78-1.93-3.1-1.93h-41.84l-1.4-32.95h68.39c.31,0,.6-.16.76-.42l5.01-8.01h42.59c1.02,1.91,3.01,3.23,5.32,3.23s4.3-1.32,5.32-3.23h52.71c1.02,1.91,3.01,3.23,5.32,3.23,3.34,0,6.05-2.71,6.05-6.05s-2.71-6.05-6.05-6.05c-2.32,0-4.3,1.32-5.32,3.23h-52.71c-1.02-1.91-3.01-3.23-5.32-3.23s-4.3,1.32-5.32,3.23h-39.06l4.41-7.06c.37-.6-.06-1.37-.76-1.37h-87.32v-8.49c1.38-.77,2.6-1.78,3.59-2.98h65.53c.34,0,.64-.2.78-.51l6.31-14.33c.25-.56-.16-1.19-.78-1.19h-71.84c-1.39-1.68-3.21-2.98-5.28-3.76v-7.91c2.52-1.51,4.22-4.26,4.22-7.41,0-2.79-1.33-5.27-3.39-6.85v-11.88h11.12c.32,0,.56-.28.51-.59l-.86-5.41c-.04-.25-.25-.43-.51-.43h-11.08v-3.33c0-2.44-1.98-4.42-4.42-4.42s-4.42,1.98-4.42,4.42v3.33h-11.08c-.25,0-.47.18-.51.43l-.86,5.41c-.05.31.19.59.51.59h11.12v11.88c-2.06,1.58-3.39,4.05-3.39,6.85,0,3.15,1.69,5.9,4.22,7.41v7.91c-2.07.78-3.9,2.08-5.28,3.76h-71.84c-.61,0-1.03.63-.78,1.19l6.31,14.33c.14.31.44.51.78.51h65.53c1,1.21,2.22,2.22,3.59,2.98v8.49h-87.32c-.71,0-1.14.78-.76,1.37l4.41,7.06h-39.06c-1.02-1.91-3.01-3.23-5.32-3.23s-4.3,1.32-5.32,3.23h-52.71c-1.02-1.91-3.01-3.23-5.32-3.23-3.34,0-6.05,2.71-6.05,6.05s2.71,6.05,6.05,6.05c2.32,0,4.3-1.32,5.32-3.23h52.71c1.02,1.91,3.01,3.23,5.32,3.23s4.3-1.32,5.32-3.23h42.59l5.01,8.01c.16.26.45.42.76.42h68.39l-1.4,32.95h-41.84c-1.32,0-2.52.75-3.1,1.93l-5.19,10.64c-.46.95-.46,2.07,0,3.02l5.19,10.64c.58,1.18,1.78,1.93,3.1,1.93h110.62c1.32,0,2.52-.75,3.1-1.93l5.19-10.64c.46-.95.46-2.07,0-3.02l-5.19-10.64Z"/>
        <path d="M94.23,85.13L25.27,25.86c-.21-.18-.47-.28-.74-.28H.46c-.43,0-.63.54-.29.82l72.63,59.43c.08.07.18.1.29.1h20.84c.43,0,.62-.53.3-.81Z"/>
        <path d="M112.94,101.2c-.08-.07-.19-.11-.3-.11h-19.9c-.43,0-.63.54-.29.82l2.73,2.23v43.45c0,.31.25.56.56.56h13.07c.31,0,.56-.25.56-.56v-31.84l19.75,16.17c.08.07.18.1.29.1h18.16c.43,0,.62-.53.3-.81l-34.92-30.01Z"/>
        <path d="M105.67,85.81c.08.08.2.12.31.12h20.95c.41,0,.62-.5.32-.79l-60.65-59.24c-.21-.21-.5-.32-.8-.32h-24.13c-.42,0-.62.51-.31.8l64.31,59.43Z"/>
        <path d="M138.67,85.79c.09.09.21.14.33.14h21.02c.4,0,.61-.47.34-.77l-53.3-59.21c-.22-.24-.52-.38-.85-.38h-24.19c-.4,0-.61.49-.33.78l56.98,59.43Z"/>
        <path d="M174.83,101.24c-.09-.1-.21-.15-.34-.15h-20.08c-.4,0-.61.49-.33.78l2.98,3.11v9.29l-13.35-13.04c-.09-.08-.2-.13-.32-.13h-20c-.42,0-.62.51-.31.8l32.46,30.01c.08.08.2.12.31.12h1.21v15.57c0,.31.25.56.56.56h13.07c.31,0,.56-.25.56-.56v-15.57h2.87c.41,0,.62-.5.32-.79l-3.19-3.11v-8.34l11.6,12.1c.09.09.21.14.33.14h18.32c.4,0,.61-.47.34-.77l-27.01-30.01Z"/>
        <path d="M171.53,85.77c.09.11.22.17.36.17h21.11c.38,0,.6-.43.37-.74l-44.95-59.17c-.22-.28-.55-.45-.91-.45h-24.24c-.39,0-.6.45-.36.75l48.62,59.43Z"/>
        <path d="M205.57,101.27c-.09-.11-.22-.18-.37-.18h-20.18c-.39,0-.6.45-.36.75l24.55,30.01c.09.11.22.17.36.17h18.42c.38,0,.6-.43.37-.74l-22.79-30.01Z"/>
        <path d="M608.23,25.58h-24.06c-.27,0-.54.1-.74.28l-68.97,59.27c-.32.28-.13.81.3.81h20.84c.11,0,.21-.04.29-.1l72.63-59.43c.33-.27.14-.82-.29-.82Z"/>
        <path d="M515.95,101.09h-19.9c-.11,0-.22.04-.3.11l-34.92,30.01c-.32.28-.13.81.3.81h18.16c.11,0,.21-.04.29-.1l19.75-16.17v31.84c0,.31.25.56.56.56h13.07c.31,0,.56-.25.56-.56v-43.45l2.73-2.23c.33-.27.14-.82-.29-.82Z"/>
        <path d="M481.76,85.94h20.95c.12,0,.23-.04.31-.12l64.31-59.43c.31-.28.11-.8-.31-.8h-24.13c-.3,0-.58.12-.8.32l-60.65,59.24c-.29.29-.09.79.32.79Z"/>
        <path d="M485.31,101.09h-20c-.12,0-.24.05-.32.13l-13.35,13.04v-9.29l2.98-3.11c.28-.29.07-.78-.33-.78h-20.08c-.13,0-.25.06-.34.15l-27.01,30.01c-.27.3-.06.77.34.77h18.32c.13,0,.25-.05.33-.14l11.6-12.1v8.34l-3.19,3.11c-.29.29-.09.79.32.79h2.87v15.57c0,.31.25.56.56.56h13.07c.31,0,.56-.25.56-.56v-15.57h1.21c.12,0,.23-.04.31-.12l32.46-30.01c.31-.28.11-.8-.31-.8Z"/>
        <path d="M448.68,85.94h21.02c.13,0,.25-.05.33-.14l56.98-59.43c.28-.29.07-.78-.33-.78h-24.19c-.32,0-.63.14-.85.38l-53.3,59.21c-.27.3-.06.77.34.77Z"/>
        <path d="M415.7,85.94h21.11c.14,0,.27-.06.36-.17l48.62-59.43c.25-.3.03-.75-.36-.75h-24.24c-.36,0-.69.17-.91.45l-44.95,59.17c-.23.3-.01.74.37.74Z"/>
        <path d="M423.66,101.09h-20.18c-.14,0-.28.07-.37.18l-22.79,30.01c-.23.3-.01.74.37.74h18.42c.14,0,.27-.06.36-.17l24.55-30.01c.25-.3.03-.75-.36-.75Z"/>
      </g>
    </g>
  </g>
</svg>