<?xml version="1.0" encoding="UTF-8"?> <svg xmlns="http://www.w3.org/2000/svg" width="57" height="44" viewBox="0 0 57 44" fill="none"><g id="Ps Logo"><g id="768-x-1024-copy-21"><g id="Page-1"><mask id="mask0_7891_6305" style="mask-type:alpha" maskUnits="userSpaceOnUse" x="0" y="0" width="57" height="44"><g id="mask-2"><path id="Vector" d="M57.0003 44V0L0.830078 0V44H57.0003Z" fill="white"></path></g></mask><g mask="url(#mask0_7891_6305)">
<path id="Fill-1" fill-rule="evenodd" clip-rule="evenodd" d="M5.0461 37.4357C0.616442 36.1673 -0.122114 33.5302 1.89644 32.0106C3.76359 30.6035 6.93967 29.5493 6.93967 29.5493L20.0554 24.8153V30.211L10.6174 33.6409C8.94774 34.2497 8.69275 35.1085 10.0491 35.5585C11.4046 36.0089 13.8572 35.8804 15.5285 35.272L20.0554 33.6043V38.4315C19.769 38.4852 19.4498 38.5371 19.1529 38.5861C14.6243 39.3388 9.80037 39.025 5.0461 37.4357ZM32.717 37.9972L47.4336 32.6757C49.1049 32.0668 49.3599 31.2085 48.0036 30.7581C46.6472 30.3076 44.1938 30.4358 42.5233 31.045L32.717 34.5516V28.9716L33.2836 28.7766C33.2836 28.7766 36.1166 27.759 40.1009 27.3124C44.0851 26.8666 48.9648 27.3724 52.7939 28.8451C57.1116 30.2301 57.5972 32.2704 56.4997 33.6762C55.4025 35.0812 52.7142 36.0826 52.7142 36.0826L32.717 43.3746V37.9972ZM34.4378 3.50655C42.1865 6.20543 44.8124 9.56679 44.8124 17.1385C44.8124 24.5177 40.324 27.3154 34.6202 24.5211V10.7691C34.6202 9.15679 34.3292 7.67131 32.8361 7.24896C31.692 6.87642 30.9824 7.95572 30.9824 9.56807V44L21.8328 41.052V0C25.724 0.732304 31.3909 2.46429 34.4378 3.50655ZM54.8133 40.8685C54.8133 40.9848 54.7831 41.0657 54.7227 41.1074C54.6564 41.153 54.5646 41.1759 54.4488 41.1759H53.8713V40.5795H54.4832C54.5684 40.5795 54.6355 40.5918 54.6837 40.6161C54.7709 40.6604 54.8133 40.743 54.8133 40.8685ZM55.2272 42.2301C55.1991 42.2178 55.1794 42.1871 55.166 42.1369C55.1568 42.1032 55.1509 42.0479 55.1492 41.9759L55.1387 41.7039C55.1345 41.5753 55.1102 41.4833 55.0641 41.4237C55.0335 41.3824 54.9899 41.3505 54.9399 41.3199C55.0033 41.2769 55.0574 41.2266 55.0972 41.1653C55.1509 41.0797 55.179 40.9724 55.179 40.8426C55.179 40.5918 55.0754 40.4172 54.8712 40.3223C54.7667 40.275 54.6342 40.2503 54.4774 40.2503H53.5564H53.5098V40.298V42.3187V42.3647H53.5564H53.8256H53.8713V42.3187V41.4987H54.4396C54.5419 41.4987 54.6174 41.5093 54.6619 41.531C54.7365 41.5676 54.7755 41.6426 54.7802 41.7558L54.7969 42.0939C54.8007 42.1748 54.8057 42.2301 54.812 42.2608C54.8179 42.2927 54.8263 42.3187 54.8376 42.3404L54.851 42.3647H54.8783H55.2084H55.2549V42.3187V42.2727V42.2425L55.2272 42.2301ZM52.7494 41.3475C52.7494 40.9252 52.9117 40.5288 53.2053 40.2308C53.4993 39.9323 53.8898 39.7671 54.3054 39.7671C54.7214 39.7671 55.1119 39.9323 55.4055 40.2308C55.6995 40.5288 55.8614 40.9252 55.8614 41.3475C55.8614 42.2178 55.1631 42.9262 54.3054 42.9262C53.8898 42.9262 53.4993 42.7623 53.2053 42.4643C52.9117 42.1658 52.7494 41.7695 52.7494 41.3475ZM54.3054 43.246C54.8049 43.246 55.2746 43.0484 55.6278 42.6891C55.9813 42.331 56.1755 41.8538 56.1755 41.3475C56.1755 40.8396 55.9813 40.3636 55.6278 40.0043C55.2746 39.6462 54.8049 39.4491 54.3054 39.4491C53.2749 39.4491 52.4353 40.2993 52.4353 41.3475C52.4353 41.8538 52.6299 42.331 52.983 42.6891C53.3366 43.0484 53.8059 43.246 54.3054 43.246Z" fill="#006FCD"></path></g></g></g></g></svg> 
