<svg xmlns="http://www.w3.org/2000/svg" viewBox="0 0 537.493 341.507">
  <defs>
    <style>
      .a, .c {
        fill: #6d6e71;
      }

      .a, .b {
        fill-rule: evenodd;
      }

      .b {
        fill: #ed1941;
      }
    </style>
  </defs>
  <title>RKMRU</title>
  <g>
    <g>
      <path class="a" d="M268.746,51.644l1.462-.405c-72.73,22.571-130.274,61.239-131.458,89.639-1.267,30.4,62.516,37.529,142.427,15.936s145.738-63.76,147-94.157c.654-15.75-16.178-25.248-43.653-27.748,33.584,1.5,54.622,11.289,54.622,28.764,0,33.308-76.305,81.935-170.4,108.609s-170.4,21.272-170.4-12.035,76.305-81.935,170.4-108.6"/>
      <polygon class="b" points="135.315 226.773 371.538 0 350.126 178.267 311.067 133.544 135.315 226.773"/>
    </g>
    <g>
      <path class="c" d="M41.7,302.493c0,9.582-6.894,18.832-18.828,18.832H10.763v18.834H0v-56.5H20.176C34.889,283.659,41.7,291.56,41.7,302.493Zm-10.762,0c0-5.3-4.2-8.072-9.414-8.072H10.763v16.142H21.524C26.741,310.563,30.938,307.2,30.938,302.493Z"/>
      <path class="c" d="M107.972,311.9a29.6,29.6,0,1,1-29.6-29.59A29.648,29.648,0,0,1,107.972,311.9Zm-10.763,0a18.834,18.834,0,1,0-18.839,18.84A18.8,18.8,0,0,0,97.209,311.9Z"/>
      <path class="c" d="M159.683,324.942,163.8,334.7a28.422,28.422,0,0,1-18.33,6.811c-16.565,0-30.1-13.289-30.1-29.6s13.535-29.59,30.1-29.59c6.306,0,13.541,2.352,18.33,6.725l-4.121,9.754a20.021,20.021,0,0,0-14.039-5.715c-10.762,0-19.507,8.4-19.507,18.826s8.745,18.84,19.507,18.84A19.46,19.46,0,0,0,159.683,324.942Z"/>
      <path class="c" d="M223.467,340.159H209.845L188.484,315.44v24.719h-10.76v-56.5h10.76v23.375L208.5,283.659h13.623L197.9,310.646Z"/>
      <path class="c" d="M284.9,311.9a29.6,29.6,0,1,1-29.594-29.59A29.642,29.642,0,0,1,284.9,311.9Zm-10.76,0a18.834,18.834,0,1,0-18.834,18.84A18.8,18.8,0,0,0,274.137,311.9Z"/>
      <path class="c" d="M336.608,324.942l4.121,9.754a28.424,28.424,0,0,1-18.328,6.811c-16.565,0-30.1-13.289-30.1-29.6s13.535-29.59,30.1-29.59c6.307,0,13.534,2.352,18.328,6.725l-4.121,9.754a20.02,20.02,0,0,0-14.037-5.715c-10.762,0-19.509,8.4-19.509,18.826s8.747,18.84,19.509,18.84A19.461,19.461,0,0,0,336.608,324.942Z"/>
      <path class="c" d="M416.708,340.159H405.272l-4.707-36.994-14.793,36.994h-5.38l-14.8-36.994-4.709,36.994H349.446l8.073-56.5H368.28l14.8,36.324,14.8-36.324h10.762Z"/>
      <path class="c" d="M481.661,311.9a29.6,29.6,0,1,1-29.6-29.59A29.641,29.641,0,0,1,481.661,311.9Zm-10.762,0a18.834,18.834,0,1,0-18.834,18.84A18.8,18.8,0,0,0,470.9,311.9Z"/>
      <path class="c" d="M533.372,324.942l4.121,9.754a28.428,28.428,0,0,1-18.33,6.811c-16.562,0-30.1-13.289-30.1-29.6s13.536-29.59,30.1-29.59c6.309,0,13.535,2.352,18.33,6.725l-4.121,9.754a20.021,20.021,0,0,0-14.039-5.715c-10.762,0-19.506,8.4-19.506,18.826s8.744,18.84,19.506,18.84A19.469,19.469,0,0,0,533.372,324.942Z"/>
    </g>
  </g>
</svg>
